<?xml version="1.0" encoding="UTF-8"?>
<svg xmlns="http://www.w3.org/2000/svg" version="1.1" height="80" width="80">
 <defs>
  <linearGradient id="hicg_overlay_grad" gradientUnits="userSpaceOnUse" x1="39.9995" y1="5.1816" x2="39.9995" y2="58.8019">
   <stop offset="0" style="stop-color:#FFFFFF"/>
   <stop offset="1" style="stop-color:#000000"/>
  </linearGradient>
  <filter id="hicg_drop_shadow">
    <feOffset in="SourceAlpha" dx="0" dy="4"/>
    <feGaussianBlur stdDeviation="4"/>
	<feColorMatrix type="matrix" values="1 0 0 0 0  0 1 0 0 0  0 0 1 0 0  0 0 0 0.5 0" result="shadow"/>
    <feBlend in="SourceGraphic" in2="shadow" mode="normal"/>
  </filter>
 </defs>
 <g>
  <path id="hicg_background" fill="#663366" d="M79,40c0,28.893-10.105,39-39,39S1,68.893,1,40C1,11.106,11.105,1,40,1S79,11.106,79,40z"/>
  <path id="hicg_highlight" fill="#fff" opacity="0.25" d="M39.999,1C11.105,1,1,11.106,1,40c0,28.893,10.105,39,38.999,39   C68.896,79,79,68.893,79,40C79,11.106,68.896,1,39.999,1z M39.999,78.025C11.57,78.025,1.976,68.43,1.976,40   c0-28.429,9.595-38.024,38.023-38.024c28.43,0,38.024,9.596,38.024,38.024C78.023,68.43,68.429,78.025,39.999,78.025z"/>
  <path id="hicg_overlay" opacity="0.4" fill="url(#hicg_overlay_grad)" d="M78.977,40c0,28.893-10.1,39-38.977,39S1.023,68.893,1.023,40c0-28.894,10.1-39,38.977-39S78.977,11.106,78.977,40z"/>
 </g>
<g xmlns:inkscape="http://www.inkscape.org/namespaces/inkscape" xmlns:xlink="http://www.w3.org/1999/xlink" xmlns:sodipodi="http://sodipodi.sourceforge.net/DTD/sodipodi-0.dtd" xmlns:rdf="http://www.w3.org/1999/02/22-rdf-syntax-ns#" xmlns:cc="http://creativecommons.org/ns#" xmlns:dc="http://purl.org/dc/elements/1.1/" transform="translate(13, 13) scale(0.34177215189873)" filter="url(#hicg_drop_shadow)">
  <defs xmlns="http://www.w3.org/2000/svg" xmlns:inkscape="http://www.inkscape.org/namespaces/inkscape" xmlns:xlink="http://www.w3.org/1999/xlink" xmlns:sodipodi="http://sodipodi.sourceforge.net/DTD/sodipodi-0.dtd" id="defs4">
    <linearGradient id="linearGradient4153">
      <stop id="stop4155" offset="0" style="stop-color: rgb(253, 251, 99); stop-opacity: 1;"/>
      <stop style="stop-color: rgb(226, 217, 74); stop-opacity: 1;" offset="1" id="stop4157"/>
    </linearGradient>
    <linearGradient inkscape:collect="always" xlink:href="#linearGradient4153" id="linearGradient9781" gradientUnits="userSpaceOnUse" gradientTransform="matrix(0.233702,0,0,0.245244,-30.0066,-133.882)" x1="223.70233" y1="823.60828" x2="190.95439" y2="882.58984"/>
    <linearGradient id="linearGradient1501">
      <stop style="stop-color: rgb(255, 255, 255); stop-opacity: 1;" offset="0.0000000" id="stop1502"/>
      <stop style="stop-color: rgb(255, 255, 255); stop-opacity: 0;" offset="1.0000000" id="stop1504"/>
    </linearGradient>
    <linearGradient inkscape:collect="always" xlink:href="#linearGradient1501" id="linearGradient9779" gradientUnits="userSpaceOnUse" gradientTransform="matrix(0,0.146017,-0.181888,0,120.349,-39.1921)" x1="351.57541" y1="584.51868" x2="743.10565" y2="393.27338"/>
    <linearGradient id="linearGradient3259">
      <stop style="stop-color: rgb(254, 253, 183); stop-opacity: 1;" offset="0" id="stop3261"/>
      <stop id="stop3267" offset="1" style="stop-color: rgb(245, 240, 108); stop-opacity: 1;"/>
    </linearGradient>
    <linearGradient inkscape:collect="always" xlink:href="#linearGradient3259" id="linearGradient9777" gradientUnits="userSpaceOnUse" gradientTransform="matrix(0.233702,0,0,0.245244,0.429474,-93.9228)" x1="41.688782" y1="340.62695" x2="463.21524" y2="-130.78929"/>
    <inkscape:perspective sodipodi:type="inkscape:persp3d" inkscape:vp_x="0 : 194.43752 : 1" inkscape:vp_y="0 : 1000 : 0" inkscape:vp_z="388.742 : 194.43752 : 1" inkscape:persp3d-origin="194.371 : 129.62501 : 1" id="perspective9403"/>
    <linearGradient id="linearGradient3401">
      <stop id="stop3403" offset="0" style="stop-color: rgb(255, 145, 145); stop-opacity: 1;"/>
      <stop id="stop3405" offset="1" style="stop-color: rgb(255, 145, 145); stop-opacity: 1;"/>
    </linearGradient>
    <linearGradient id="linearGradient3316">
      <stop style="stop-color: rgb(255, 255, 255); stop-opacity: 1;" offset="0" id="stop3318"/>
      <stop style="stop-color: rgb(255, 255, 255); stop-opacity: 0;" offset="1" id="stop3320"/>
    </linearGradient>
    <linearGradient id="linearGradient3706">
      <stop style="stop-color: rgb(255, 255, 255); stop-opacity: 0.826531;" offset="0" id="stop3708"/>
      <stop style="stop-color: rgb(255, 255, 255); stop-opacity: 0;" offset="1" id="stop3710"/>
    </linearGradient>
    <linearGradient id="linearGradient4497">
      <stop style="stop-color: rgb(255, 174, 44); stop-opacity: 1;" offset="0" id="stop4499"/>
      <stop style="stop-color: rgb(255, 158, 0); stop-opacity: 1;" offset="1" id="stop4501"/>
    </linearGradient>
    <linearGradient id="linearGradient4254">
      <stop style="stop-color: rgb(255, 145, 145); stop-opacity: 1;" offset="0" id="stop4256"/>
      <stop style="stop-color: rgb(181, 88, 88); stop-opacity: 1;" offset="1" id="stop4258"/>
    </linearGradient>
    <linearGradient id="linearGradient3800">
      <stop style="stop-color: rgb(255, 255, 255); stop-opacity: 1;" offset="0" id="stop3802"/>
      <stop style="stop-color: rgb(255, 255, 255); stop-opacity: 0;" offset="1" id="stop3804"/>
    </linearGradient>
    <linearGradient id="linearGradient3707">
      <stop style="stop-color: rgb(255, 255, 255); stop-opacity: 1;" offset="0" id="stop3687"/>
      <stop style="stop-color: rgb(255, 221, 124); stop-opacity: 1;" offset="1" id="stop3711"/>
    </linearGradient>
    <linearGradient id="linearGradient3692">
      <stop style="stop-color: rgb(255, 158, 0); stop-opacity: 1;" offset="0" id="stop3694"/>
      <stop id="stop3705" offset="0.5" style="stop-color: rgb(255, 255, 255); stop-opacity: 1;"/>
      <stop style="stop-color: rgb(255, 158, 0); stop-opacity: 1;" offset="1" id="stop3696"/>
    </linearGradient>
    <linearGradient inkscape:collect="always" xlink:href="#linearGradient3800" id="linearGradient3806" x1="167.15625" y1="298.17941" x2="167.15625" y2="311.57703" gradientUnits="userSpaceOnUse"/>
    <linearGradient inkscape:collect="always" xlink:href="#linearGradient4254" id="linearGradient4260" x1="148.70325" y1="318.68668" x2="185.48425" y2="318.68668" gradientUnits="userSpaceOnUse"/>
    <linearGradient inkscape:collect="always" xlink:href="#linearGradient4254" id="linearGradient4396" gradientUnits="userSpaceOnUse" x1="148.70325" y1="318.68668" x2="185.48425" y2="318.68668" gradientTransform="matrix(1,0,0,-1,0,1052.36)"/>
    <linearGradient inkscape:collect="always" xlink:href="#linearGradient4254" id="linearGradient4399" gradientUnits="userSpaceOnUse" gradientTransform="translate(0,-1.73828e-5)" x1="148.70325" y1="318.68668" x2="185.48425" y2="318.68668"/>
    <linearGradient inkscape:collect="always" xlink:href="#linearGradient4254" id="linearGradient4465" gradientUnits="userSpaceOnUse" x1="148.70325" y1="318.68668" x2="185.48425" y2="318.68668"/>
    <linearGradient inkscape:collect="always" xlink:href="#linearGradient4254" id="linearGradient4481" gradientUnits="userSpaceOnUse" x1="148.70325" y1="318.68668" x2="185.48425" y2="318.68668" gradientTransform="matrix(0.650441,0,0,0.650441,239.123,164.452)"/>
    <linearGradient inkscape:collect="always" xlink:href="#linearGradient3707" id="linearGradient4495" x1="335.91367" y1="425.20453" x2="359.76996" y2="425.20453" gradientUnits="userSpaceOnUse"/>
    <linearGradient inkscape:collect="always" xlink:href="#linearGradient4497" id="linearGradient4503" x1="335.91718" y1="414.39426" x2="359.75989" y2="414.39426" gradientUnits="userSpaceOnUse"/>
    <linearGradient inkscape:collect="always" xlink:href="#linearGradient4254" id="linearGradient4569" gradientUnits="userSpaceOnUse" gradientTransform="matrix(0.650441,0,0,0.650441,239.123,164.452)" x1="148.70325" y1="318.68668" x2="185.48425" y2="318.68668"/>
    <linearGradient inkscape:collect="always" xlink:href="#linearGradient4254" id="linearGradient4590" gradientUnits="userSpaceOnUse" gradientTransform="matrix(0.650441,0,0,0.650441,239.123,164.452)" x1="148.70325" y1="318.68668" x2="185.48425" y2="318.68668"/>
    <linearGradient inkscape:collect="always" xlink:href="#linearGradient3707" id="linearGradient4592" gradientUnits="userSpaceOnUse" x1="335.91367" y1="425.20453" x2="359.76996" y2="425.20453"/>
    <linearGradient inkscape:collect="always" xlink:href="#linearGradient4497" id="linearGradient4594" gradientUnits="userSpaceOnUse" x1="335.91718" y1="414.39426" x2="359.75989" y2="414.39426"/>
    <linearGradient inkscape:collect="always" xlink:href="#linearGradient3706" id="linearGradient2322" gradientUnits="userSpaceOnUse" x1="335.71875" y1="414.35938" x2="353.75" y2="414.35938" gradientTransform="matrix(3.57333,-1.5579e-3,-1.5579e-3,3.57333,-872.347,-1020.08)"/>
    <linearGradient inkscape:collect="always" xlink:href="#linearGradient3707" id="linearGradient2332" gradientUnits="userSpaceOnUse" x1="331.71732" y1="437.79453" x2="365.74753" y2="437.79453" gradientTransform="matrix(3.57333,-1.5579e-3,-1.5579e-3,3.57333,-872.347,-1020.08)"/>
    <linearGradient inkscape:collect="always" xlink:href="#linearGradient4254" id="linearGradient2339" gradientUnits="userSpaceOnUse" gradientTransform="matrix(3.31545,-1.44547e-3,-1.44547e-3,3.31545,-180.478,-785.117)" x1="148.70325" y1="318.68668" x2="185.48425" y2="318.68668"/>
    <linearGradient inkscape:collect="always" xlink:href="#linearGradient3316" id="linearGradient3322" x1="349.15182" y1="707.90222" x2="373.04395" y2="707.90222" gradientUnits="userSpaceOnUse"/>
    <linearGradient inkscape:collect="always" xlink:href="#linearGradient3706" id="linearGradient3326" gradientUnits="userSpaceOnUse" gradientTransform="matrix(3.57333,-1.5579e-3,-1.5579e-3,3.57333,-872.347,-1100.08)" x1="335.71875" y1="414.35938" x2="353.75" y2="414.35938"/>
    <linearGradient inkscape:collect="always" xlink:href="#linearGradient3706" id="linearGradient3386" gradientUnits="userSpaceOnUse" gradientTransform="matrix(3.57333,1.5579e-3,-1.5579e-3,-3.57333,-872.347,2152.45)" x1="335.71875" y1="414.35938" x2="353.75" y2="414.35938"/>
    <linearGradient inkscape:collect="always" xlink:href="#linearGradient4254" id="linearGradient3393" gradientUnits="userSpaceOnUse" gradientTransform="matrix(3.57333,-1.5579e-3,-1.5579e-3,3.57333,-872.347,-1100.08)" x1="335.71875" y1="414.35938" x2="353.75" y2="414.35938"/>
    <linearGradient inkscape:collect="always" xlink:href="#linearGradient4254" id="linearGradient3430" gradientUnits="userSpaceOnUse" gradientTransform="matrix(3.31545,-1.44547e-3,-1.44547e-3,3.31545,-180.478,-785.117)" x1="148.70325" y1="318.68668" x2="185.48425" y2="318.68668"/>
    <linearGradient inkscape:collect="always" xlink:href="#linearGradient3707" id="linearGradient3432" gradientUnits="userSpaceOnUse" gradientTransform="matrix(3.57333,-1.5579e-3,-1.5579e-3,3.57333,-872.347,-1020.08)" x1="331.71732" y1="437.79453" x2="365.74753" y2="437.79453"/>
    <linearGradient inkscape:collect="always" xlink:href="#linearGradient3706" id="linearGradient3434" gradientUnits="userSpaceOnUse" gradientTransform="matrix(3.57333,-1.5579e-3,-1.5579e-3,3.57333,-872.347,-1020.08)" x1="335.71875" y1="414.35938" x2="353.75" y2="414.35938"/>
    <linearGradient inkscape:collect="always" xlink:href="#linearGradient3316" id="linearGradient3436" gradientUnits="userSpaceOnUse" x1="349.15182" y1="707.90222" x2="373.04395" y2="707.90222"/>
    <linearGradient inkscape:collect="always" xlink:href="#linearGradient3316" id="linearGradient4267" gradientUnits="userSpaceOnUse" x1="349.15182" y1="707.90222" x2="373.04395" y2="707.90222" gradientTransform="translate(15.3652,6.29279)"/>
    <linearGradient inkscape:collect="always" xlink:href="#linearGradient3706" id="linearGradient4270" gradientUnits="userSpaceOnUse" gradientTransform="matrix(3.57333,-1.5579e-3,-1.5579e-3,3.57333,-856.982,-1013.79)" x1="335.71875" y1="414.35938" x2="353.75" y2="414.35938"/>
    <linearGradient inkscape:collect="always" xlink:href="#linearGradient3707" id="linearGradient4279" gradientUnits="userSpaceOnUse" gradientTransform="matrix(3.57333,-1.5579e-3,-1.5579e-3,3.57333,-856.982,-1013.79)" x1="331.71732" y1="437.79453" x2="365.74753" y2="437.79453"/>
    <linearGradient inkscape:collect="always" xlink:href="#linearGradient4254" id="linearGradient4286" gradientUnits="userSpaceOnUse" gradientTransform="matrix(3.31545,-1.44547e-3,-1.44547e-3,3.31545,-165.112,-778.824)" x1="148.70325" y1="318.68668" x2="185.48425" y2="318.68668"/>
    <linearGradient inkscape:collect="always" xlink:href="#linearGradient4254" id="linearGradient4306" gradientUnits="userSpaceOnUse" gradientTransform="matrix(3.31545,-1.44547e-3,-1.44547e-3,3.31545,-165.112,-778.824)" x1="148.70325" y1="318.68668" x2="185.48425" y2="318.68668"/>
    <linearGradient inkscape:collect="always" xlink:href="#linearGradient3707" id="linearGradient4308" gradientUnits="userSpaceOnUse" gradientTransform="matrix(3.57333,-1.5579e-3,-1.5579e-3,3.57333,-856.982,-1013.79)" x1="331.71732" y1="437.79453" x2="365.74753" y2="437.79453"/>
    <linearGradient inkscape:collect="always" xlink:href="#linearGradient3706" id="linearGradient4310" gradientUnits="userSpaceOnUse" gradientTransform="matrix(3.57333,-1.5579e-3,-1.5579e-3,3.57333,-856.982,-1013.79)" x1="335.71875" y1="414.35938" x2="353.75" y2="414.35938"/>
    <linearGradient inkscape:collect="always" xlink:href="#linearGradient3706" id="linearGradient4314" gradientUnits="userSpaceOnUse" gradientTransform="matrix(3.57333,-1.5579e-3,-1.5579e-3,3.57333,-856.982,-1013.79)" x1="335.71875" y1="414.35938" x2="353.75" y2="414.35938"/>
    <linearGradient inkscape:collect="always" xlink:href="#linearGradient3707" id="linearGradient4323" gradientUnits="userSpaceOnUse" gradientTransform="matrix(3.57333,-1.5579e-3,-1.5579e-3,3.57333,-856.982,-1013.79)" x1="331.71732" y1="437.79453" x2="365.74753" y2="437.79453"/>
    <linearGradient inkscape:collect="always" xlink:href="#linearGradient4254" id="linearGradient4330" gradientUnits="userSpaceOnUse" gradientTransform="matrix(3.31545,-1.44547e-3,-1.44547e-3,3.31545,-165.112,-778.824)" x1="148.70325" y1="318.68668" x2="185.48425" y2="318.68668"/>
    <linearGradient inkscape:collect="always" xlink:href="#linearGradient3706" id="linearGradient7803" gradientUnits="userSpaceOnUse" gradientTransform="matrix(2.52783,2.52562,-2.52783,2.52562,565.911,-1456.14)" x1="335.71875" y1="414.35938" x2="353.75" y2="414.35938"/>
    <linearGradient inkscape:collect="always" xlink:href="#linearGradient3707" id="linearGradient7812" gradientUnits="userSpaceOnUse" gradientTransform="matrix(2.52783,2.52562,-2.52783,2.52562,565.911,-1456.14)" x1="331.71732" y1="437.79453" x2="365.74753" y2="437.79453"/>
    <linearGradient inkscape:collect="always" xlink:href="#linearGradient4254" id="linearGradient7819" gradientUnits="userSpaceOnUse" gradientTransform="matrix(2.3454,2.34335,-2.3454,2.34335,888.991,-800.77)" x1="148.70325" y1="318.68668" x2="185.48425" y2="318.68668"/>
  </defs>
  <sodipodi:namedview xmlns:sodipodi="http://sodipodi.sourceforge.net/DTD/sodipodi-0.dtd" xmlns:inkscape="http://www.inkscape.org/namespaces/inkscape" id="base" pagecolor="#ffffff" bordercolor="#666666" borderopacity="1.0" gridtolerance="10000" guidetolerance="10" objecttolerance="10" inkscape:pageopacity="0.0" inkscape:pageshadow="2" inkscape:zoom="5.6582278" inkscape:cx="79" inkscape:cy="79" inkscape:document-units="px" inkscape:current-layer="g10892" inkscape:window-width="1590" inkscape:window-height="1101" inkscape:window-x="23" inkscape:window-y="23" showguides="true" inkscape:guide-bbox="true" showgrid="false" inkscape:showpageshadow="false">
    <inkscape:grid type="xygrid" id="grid9405" visible="true" enabled="true"/>
  </sodipodi:namedview>
  <metadata xmlns="http://www.w3.org/2000/svg" xmlns:rdf="http://www.w3.org/1999/02/22-rdf-syntax-ns#" xmlns:cc="http://creativecommons.org/ns#" xmlns:dc="http://purl.org/dc/elements/1.1/" id="metadata7">
    <rdf:RDF>
      <cc:Work rdf:about="">
        <dc:format>image/svg+xml</dc:format>
        <dc:type rdf:resource="http://purl.org/dc/dcmitype/StillImage"/>
        <dc:title>Sticky note and pencil</dc:title>
        <dc:date>14 Jun 08</dc:date>
        <dc:creator>
          <cc:Agent>
            <dc:title>Jeremy Bennett</dc:title>
          </cc:Agent>
        </dc:creator>
        <dc:rights>
          <cc:Agent>
            <dc:title>Public Domain</dc:title>
          </cc:Agent>
        </dc:rights>
        <dc:publisher>
          <cc:Agent>
            <dc:title>Jeremy Bennett</dc:title>
          </cc:Agent>
        </dc:publisher>
        <dc:contributor>
          <cc:Agent>
            <dc:title>Richard Tallent and Barret Ruttan from the Open Clip Art library</dc:title>
          </cc:Agent>
        </dc:contributor>
        <dc:description>A pencil writing on a sticky note. Created for use as a "note" admonition with Docbook and FOP</dc:description>
        <dc:subject>
          <rdf:Bag>
            <rdf:li>color</rdf:li>
            <rdf:li>icon</rdf:li>
            <rdf:li>office</rdf:li>
            <rdf:li>computer</rdf:li>
            <rdf:li>docbook</rdf:li>
            <rdf:li>admonition</rdf:li>
          </rdf:Bag>
        </dc:subject>
        <dc:language>en-GB</dc:language>
        <cc:license rdf:resource="http://creativecommons.org/licenses/publicdomain/"/>
      </cc:Work>
      <cc:License rdf:about="http://creativecommons.org/licenses/publicdomain/">
        <cc:permits rdf:resource="http://creativecommons.org/ns#Reproduction"/>
        <cc:permits rdf:resource="http://creativecommons.org/ns#Distribution"/>
        <cc:permits rdf:resource="http://creativecommons.org/ns#DerivativeWorks"/>
      </cc:License>
    </rdf:RDF>
  </metadata>
  <g xmlns="http://www.w3.org/2000/svg" xmlns:inkscape="http://www.inkscape.org/namespaces/inkscape" inkscape:label="Layer 1" inkscape:groupmode="layer" id="layer1" style="display:inline" transform="translate(-209.337,-272.78)"/>
  <g xmlns="http://www.w3.org/2000/svg" xmlns:inkscape="http://www.inkscape.org/namespaces/inkscape" xmlns:sodipodi="http://sodipodi.sourceforge.net/DTD/sodipodi-0.dtd" inkscape:groupmode="layer" id="layer2" inkscape:label="layer2" style="display:inline" transform="translate(-209.337,-272.78)">
    <g id="g10892" transform="matrix(2.8554109,0,0,2.7845132,-389.12153,-487.21014)">
      <g inkscape:transform-center-y="40.550639" inkscape:transform-center-x="2.6772119" transform="matrix(0.6347176,0,0,0.64841,206.81915,270.18159)" id="g9771" style="display:inline">
        <rect style="opacity:1;fill:#d0c36b;fill-opacity:1;fill-rule:evenodd;stroke:none;stroke-width:0pt;stroke-linecap:butt;stroke-linejoin:miter;stroke-miterlimit:4;stroke-dasharray:none;stroke-dashoffset:0;stroke-opacity:1" id="rect2284" width="85.714661" height="86.099754" x="5.7103438" y="-91.543068" rx="0.31228966" ry="0.32912013" transform="matrix(0,1,-1,0,0,0)"/>
        <rect style="opacity:1;fill:url(#linearGradient9777);fill-opacity:1;fill-rule:evenodd;stroke:#f6db32;stroke-width:0.957614;stroke-linecap:butt;stroke-linejoin:miter;stroke-miterlimit:4;stroke-dasharray:none;stroke-dashoffset:0;stroke-opacity:1;display:inline" id="rect3269" width="84.609276" height="84.6259" x="4.3955345" y="-89.468613" rx="0.30826232" ry="0.32348624" transform="matrix(0,1,-1,0,0,0)"/>
        <path style="opacity:0.277778;fill:url(#linearGradient9779);fill-opacity:1;fill-rule:evenodd;stroke-width:1pt;display:inline" sodipodi:nodetypes="ccczc" id="path1500" d="M 88.884796,5.2927139 L 48.050521,5.1424302 L 7.2162491,4.9921455 C 7.2162491,4.9921455 -5.6146297,133.56205 37.44729,62.715243 C 80.509211,-8.1315776 85.588756,21.824246 88.884796,5.2927139 z"/>
        <path style="fill:#000000" id="path2611" d="M 46.219125,46.186798 C 45.269355,46.168451 44.320995,46.253639 43.374389,46.321051 C 42.48359,46.390062 41.590617,46.413407 40.697497,46.42063 C 39.613107,46.398205 38.53286,46.325661 37.452631,46.23362 C 36.060448,46.117999 34.668079,46.013702 33.272133,45.957343 C 32.135543,45.909584 30.997591,45.932957 29.860947,45.894736 C 28.821603,45.877301 27.79275,45.718176 26.763222,45.590378 C 25.663787,45.453801 24.563233,45.331057 23.461465,45.213483 C 22.554215,45.08203 21.643335,44.987738 20.727949,44.940968 C 20.066735,44.911768 19.404876,44.91431 18.743219,44.914558 C 18.288291,44.915872 17.833366,44.917756 17.37844,44.919834 C 16.965593,44.959743 16.555733,45.001088 16.147316,45.072203 C 15.760706,45.131625 15.369785,45.157759 14.979088,45.169129 C 14.660363,45.152174 14.352605,45.194409 14.039912,45.246158 C 13.763136,45.290381 13.482132,45.294157 13.202518,45.299932 C 12.883982,45.302756 12.565443,45.302704 12.246903,45.301099 C 11.917887,45.324213 11.598214,45.282701 11.274425,45.233445 C 10.938141,45.206065 10.611295,45.130441 10.290501,45.027799 C 9.8639121,44.846253 9.4134166,44.757064 8.9556246,44.703068 C 8.632358,44.669183 8.3071562,44.666973 7.9825007,44.667273 C 7.7022423,44.668728 7.4219815,44.668844 7.1417204,44.669765 C 6.843409,44.669897 6.5450972,44.66998 6.2467847,44.6705 C 5.9904304,44.688241 5.724115,44.635826 5.4731446,44.697107 C 5.3149139,44.741816 5.1500124,44.75534 4.9870021,44.771313 L 6.4893446,43.652812 C 6.6523823,43.630537 6.8135938,43.599848 6.976047,43.574238 C 7.2374205,43.564761 7.4990947,43.572692 7.7605942,43.57059 C 8.0588009,43.570949 8.3570042,43.570844 8.655208,43.569518 C 8.9361501,43.568902 9.2170895,43.565945 9.4980289,43.567729 C 9.8242988,43.572402 10.150895,43.584737 10.474445,43.630272 C 10.937473,43.699992 11.388343,43.811302 11.826992,43.977563 C 12.14811,44.064465 12.473982,44.120027 12.804615,44.156219 C 13.120828,44.203207 13.436904,44.214571 13.756644,44.204318 C 14.075577,44.203034 14.394593,44.204641 14.713435,44.195926 C 14.989337,44.186662 15.26518,44.170933 15.537412,44.122039 C 15.851759,44.075135 16.166689,44.069811 16.484215,44.066871 C 16.869777,44.048886 17.255373,44.021138 17.635798,43.952654 C 18.049093,43.886524 18.467294,43.849051 18.884959,43.82491 C 19.337278,43.825518 19.7896,43.824749 20.241914,43.826198 C 20.898513,43.829348 21.555311,43.842355 22.211118,43.875572 C 23.124666,43.927643 24.031192,44.039993 24.937453,44.165036 C 26.04027,44.284025 27.140794,44.419618 28.242989,44.54312 C 29.266953,44.671923 30.291373,44.819859 31.325081,44.837616 C 32.458665,44.866902 33.593315,44.853631 34.726241,44.910606 C 36.121574,44.977025 37.513196,45.090826 38.906082,45.19513 C 39.993021,45.2753 41.081147,45.332032 42.171145,45.347219 C 43.058191,45.332812 43.945211,45.309471 44.830462,45.247888 C 45.79836,45.184475 46.765973,45.10803 47.735937,45.08477 L 46.219125,46.186798 z" transform="matrix(1.6192423,0,0,1.5638187,3.9559061,3.6771947)"/>
        <path style="fill:#000000" id="path2613" d="M 44.801895,52.120037 C 43.391375,52.222266 41.979933,52.307465 40.56702,52.370294 C 39.052257,52.415841 37.543821,52.288623 36.041435,52.111752 C 35.011655,51.973238 33.975165,51.905218 32.937302,51.871076 C 31.981085,51.836853 31.024021,51.797051 30.068979,51.736321 C 29.055294,51.663991 28.03971,51.630064 27.023793,51.612605 C 26.438367,51.582287 25.859171,51.615308 25.277794,51.67523 C 24.822416,51.779414 24.356086,51.800608 23.894409,51.858962 C 23.368136,51.935962 22.836399,51.961481 22.305383,51.978275 C 21.813967,51.991697 21.322358,51.990853 20.830808,51.991074 C 20.325371,51.998173 19.822015,52.057876 19.316932,52.084388 C 18.809453,52.107301 18.301405,52.113682 17.793475,52.116315 C 17.350467,52.132474 16.907894,52.086205 16.471194,52.014483 C 15.96894,51.924172 15.467786,51.827798 14.965471,51.737052 C 14.430151,51.597333 13.88867,51.495667 13.345669,51.392246 C 12.802686,51.25936 12.268546,51.091313 11.731292,50.935918 C 11.361004,50.807698 10.970506,50.783033 10.588327,50.716279 C 10.218973,50.6677 9.8532504,50.599151 9.4846747,50.545514 C 9.1301407,50.531904 8.7880187,50.437541 8.437608,50.394198 C 8.0768025,50.366042 7.718012,50.354316 7.3591605,50.305823 C 7.0490909,50.266268 6.7405499,50.248021 6.4347171,50.183076 C 6.2319729,50.137437 6.0250609,50.120138 5.8180899,50.108779 L 7.3424513,49.017989 C 7.5537938,49.036858 7.7638361,49.065431 7.970968,49.112557 C 8.2721657,49.168799 8.5792788,49.179071 8.8817093,49.228802 C 9.2415969,49.271697 9.6042717,49.268621 9.9636542,49.317442 C 10.311643,49.371167 10.655629,49.448405 11.007927,49.473435 C 11.376511,49.531482 11.745197,49.587384 12.114049,49.643661 C 12.502236,49.697595 12.887166,49.764702 13.26034,49.889345 C 13.792821,50.04269 14.319335,50.222181 14.86286,50.332216 C 15.406856,50.431966 15.943447,50.557172 16.483409,50.675652 C 16.984676,50.768602 17.485945,50.862347 17.988953,50.945099 C 18.42231,51.000624 18.857341,51.041194 19.294871,51.024088 C 19.799609,51.020545 20.304561,51.016148 20.80864,50.987515 C 21.31642,50.956038 21.823205,50.894971 22.332472,50.89995 C 22.821645,50.899736 23.310929,50.899175 23.799921,50.884321 C 24.328424,50.863567 24.856127,50.827653 25.380046,50.752312 C 25.845448,50.699686 26.309871,50.645991 26.771775,50.567134 C 27.346899,50.512701 27.921351,50.522118 28.498457,50.545946 C 29.513319,50.571361 30.52768,50.610252 31.540576,50.680222 C 32.498329,50.731356 33.456883,50.773598 34.415435,50.805631 C 35.448424,50.84951 36.47968,50.9297 37.503828,51.075246 C 38.988512,51.250311 40.479128,51.39006 41.976511,51.336225 C 43.425219,51.266277 44.871461,51.164895 46.314832,51.020823 L 44.801895,52.120037 z" transform="matrix(1.6192423,0,0,1.5638187,3.9559061,3.6771947)"/>
        <path style="opacity:1;fill:url(#linearGradient9781);fill-opacity:1;fill-rule:evenodd;stroke:#f8df37;stroke-width:0.95775402;stroke-linecap:butt;stroke-linejoin:miter;marker:none;stroke-miterlimit:4;stroke-dasharray:none;stroke-dashoffset:0;stroke-opacity:0.375;visibility:visible;display:inline;overflow:visible" d="M 4.863258,66.629365 C 13.997588,71.039462 22.851305,67.626751 22.457347,67.826878 C 22.554936,68.158984 21.797721,83.392135 34.016505,89.029269 C 16.298366,88.898999 4.863258,78.851973 4.863258,66.629365 z" id="path3169" sodipodi:nodetypes="cccc"/>
      </g>
      <path style="fill:#000000" id="path2577" d="M 5.5848552,4.3239733 C 6.1058896,4.3773609 6.6278545,4.3988408 7.1478289,4.4627569 C 7.6138003,4.5197906 8.0743904,4.6155011 8.5376877,4.6914239 C 9.1512033,4.7876608 9.7648364,4.8651745 10.38479,4.9044322 C 11.12691,4.9418533 11.87024,4.9428308 12.613112,4.9452909 C 13.409341,4.9440618 14.205557,4.9447282 15.001781,4.9477414 C 16.005537,4.9491504 17.009285,4.9495378 18.013042,4.9497388 C 19.089225,4.9513936 20.165401,4.9498672 21.241585,4.9514404 C 22.433124,4.9761138 23.623061,4.9373127 24.813457,4.8925497 C 26.181397,4.8498489 27.550064,4.8312778 28.918457,4.8559921 C 30.394471,4.8983558 31.870777,4.9261601 33.347326,4.9393021 C 34.21142,4.9450901 35.075431,4.9680265 35.937439,4.8997502 C 36.413118,4.8574083 36.879444,4.7590169 37.355938,4.7199418 C 38.161176,4.6703865 38.967168,4.705262 39.772145,4.738271 C 41.191259,4.8044944 42.605042,4.9300842 44.01868,5.0678287 C 45.540389,5.2360844 47.066617,5.3627716 48.593188,5.4780181 C 48.760764,5.4892032 48.92834,5.5003882 49.095915,5.5115733 L 47.619153,6.5669764 C 47.455904,6.5522643 47.292654,6.5375521 47.129404,6.52284 C 45.613034,6.3816051 44.095604,6.2512283 42.581008,6.0920059 C 41.159975,5.9645398 39.73834,5.8461277 38.312249,5.7916744 C 37.496051,5.77165 36.677948,5.7542933 35.863478,5.8258479 C 35.39203,5.8760916 34.926303,5.972669 34.451891,5.9942266 C 33.598244,6.0401816 32.743997,6.0013885 31.889638,5.9950943 C 30.421295,5.9647417 28.953247,5.9220968 27.484844,5.8944612 C 26.109309,5.8801679 24.733662,5.9087772 23.358947,5.9575258 C 22.166354,6.0006251 20.973995,6.0248045 19.780501,6.0129793 C 18.702731,6.0145409 17.624969,6.0130001 16.5472,6.0147518 C 15.541005,6.0150974 14.534819,6.0156674 13.528628,6.0181859 C 12.729174,6.0221351 11.929714,6.0253505 11.130252,6.0219212 C 10.382932,6.0195753 9.6351533,6.0176367 8.8887487,5.9760296 C 8.2626171,5.9311185 7.6422569,5.8499941 7.0217466,5.7556575 C 6.5594369,5.6799956 6.0986976,5.5918873 5.6336395,5.5350246 C 5.1111243,5.4717038 4.5855663,5.4506513 4.061135,5.4079837 L 5.5848552,4.3239733 z" transform="translate(209.337,272.78)"/>
      <path style="fill:#000000" id="path2585" d="M 6.3512135,16.67634 C 7.8717248,16.663583 9.3909817,16.605173 10.910331,16.548562 C 12.133621,16.535049 13.348127,16.393025 14.564974,16.286733 C 15.459626,16.170354 16.3593,16.114037 17.260325,16.081395 C 18.352909,16.031984 19.444623,16.111032 20.534374,16.180642 C 21.446794,16.252869 22.362645,16.261297 23.275716,16.318162 C 24.046269,16.373767 24.818204,16.404224 25.590489,16.420441 C 26.154364,16.429119 26.718329,16.429636 27.282258,16.430932 C 28.083362,16.432232 28.884448,16.438137 29.685554,16.439001 C 30.449444,16.442483 31.213279,16.42862 31.977153,16.430853 C 32.959067,16.437955 33.940981,16.44309 34.922921,16.442661 C 35.866151,16.464929 36.808207,16.506668 37.748702,16.580595 C 38.546267,16.660111 39.338251,16.782873 40.135554,16.864488 C 40.654679,16.919358 41.176638,16.928897 41.698085,16.936773 C 42.374467,16.979751 43.051063,17.017863 43.72837,17.042509 C 44.403666,17.062428 45.079326,17.064992 45.754866,17.063686 C 46.225758,17.059681 46.696655,17.058936 47.167556,17.056867 C 47.547065,17.055071 47.926573,17.057165 48.306085,17.056187 C 48.364962,17.05599 48.423838,17.055794 48.482715,17.055597 L 46.972963,18.15251 C 46.914622,18.152321 46.856281,18.152132 46.797939,18.151943 C 46.418781,18.151036 46.03963,18.153231 45.660474,18.151986 C 45.195333,18.150574 44.730195,18.150924 44.265071,18.145623 C 43.586661,18.141526 42.90805,18.143828 42.229893,18.122365 C 41.554678,18.094557 40.88102,18.035723 40.205305,18.019062 C 39.680294,18.016427 39.155671,18.002954 38.634783,17.929603 C 37.843541,17.83406 37.055469,17.712902 36.261203,17.643492 C 35.330379,17.569429 34.397373,17.524747 33.463845,17.502741 C 32.47107,17.502302 31.478322,17.507515 30.485574,17.514557 C 29.728954,17.516801 28.972372,17.503129 28.215736,17.506943 C 27.406372,17.508223 26.597035,17.514942 25.787674,17.516678 C 25.223953,17.51731 24.660138,17.517851 24.096634,17.499699 C 23.327321,17.474668 22.558799,17.432857 21.790632,17.384165 C 20.884967,17.336484 19.978412,17.306154 19.074469,17.227172 C 17.980976,17.157422 16.885283,17.105017 15.789591,17.158551 C 14.891414,17.194652 13.995887,17.263811 13.102946,17.368599 C 11.904092,17.473878 10.704969,17.574643 9.5002409,17.580792 C 7.9465187,17.634281 6.3927196,17.692915 4.8402134,17.774146 L 6.3512135,16.67634 z" transform="translate(209.337,272.78)"/>
      <path style="fill:#000000" id="path2587" d="M 7.1926907,22.861414 C 8.1794478,22.890267 9.1668881,22.885052 10.153938,22.879048 C 10.97366,22.872013 11.79342,22.874064 12.61316,22.875264 C 13.468608,22.881473 14.324496,22.859399 15.179385,22.89418 C 16.275513,22.942713 17.363317,23.105329 18.45054,23.246077 C 19.401397,23.363289 20.347789,23.508314 21.303331,23.583044 C 21.988994,23.629484 22.676521,23.631091 23.363416,23.630765 C 23.925117,23.627168 24.486831,23.628038 25.048538,23.628935 C 25.840654,23.649245 26.631086,23.610524 27.42203,23.573928 C 28.23247,23.558113 29.038478,23.47265 29.847416,23.429346 C 30.51358,23.394086 31.180458,23.379352 31.847457,23.375191 C 32.587871,23.363116 33.327862,23.411872 34.065027,23.477163 C 35.177004,23.633803 36.291842,23.75204 37.41249,23.823738 C 38.117482,23.865563 38.823637,23.876038 39.52966,23.880963 C 40.021061,23.881257 40.512463,23.880029 41.003859,23.877595 C 41.465705,23.896255 41.923842,23.832936 42.383056,23.794034 C 42.727266,23.711694 43.083778,23.691879 43.428359,23.616788 C 43.715818,23.547845 44.008969,23.514383 44.30378,23.502205 C 44.591907,23.492277 44.880242,23.49217 45.168502,23.492038 C 45.570779,23.498893 45.973424,23.484116 46.374482,23.518007 C 46.596082,23.533472 46.813928,23.557082 47.031521,23.600737 L 45.504211,24.669016 C 45.292757,24.634946 45.080598,24.611692 44.866619,24.599176 C 44.462389,24.582817 44.058049,24.591581 43.65358,24.592912 C 43.3681,24.59332 43.082348,24.593349 42.797312,24.611341 C 42.507729,24.636156 42.221462,24.681325 41.937174,24.742173 C 41.587763,24.794988 41.23931,24.854553 40.888796,24.899111 C 40.426785,24.938328 39.965395,24.988047 39.500791,24.970097 C 39.010832,24.969615 38.520855,24.972184 38.030909,24.967848 C 37.334939,24.96042 36.639988,24.922796 35.945717,24.874237 C 34.820299,24.792838 33.700378,24.665246 32.579402,24.53858 C 31.839091,24.486081 31.097314,24.439862 30.354752,24.461532 C 29.69362,24.467992 29.032291,24.477359 28.372025,24.514396 C 27.565848,24.564752 26.760943,24.63482 25.95296,24.651833 C 25.154452,24.689839 24.356333,24.726544 23.556586,24.713211 C 22.994258,24.71562 22.431901,24.72009 21.869576,24.715141 C 21.182615,24.708993 20.494696,24.703667 19.809549,24.648631 C 18.863822,24.557751 17.927419,24.400633 16.984977,24.282601 C 15.893875,24.144306 14.801037,23.997408 13.700696,23.960883 C 12.845498,23.937786 11.989912,23.954138 11.134475,23.949592 C 10.318207,23.950782 9.5019183,23.95289 8.6856696,23.945808 C 7.6824284,23.939601 6.6788499,23.935428 5.6758795,23.963442 L 7.1926907,22.861414 z" transform="translate(209.337,272.78)"/>
      <path style="fill:#000000" id="path2595" d="M 7.2209616,29.428813 C 8.3445201,29.462258 9.4687983,29.454945 10.592673,29.447018 C 11.263201,29.44549 11.933654,29.433199 12.604183,29.433135 C 13.225691,29.436028 13.847203,29.436156 14.468713,29.438795 C 15.392828,29.442546 16.316945,29.444223 17.241065,29.446464 C 18.613396,29.451132 19.985714,29.456979 21.358055,29.45855 C 22.688649,29.461196 24.019263,29.455286 25.349808,29.443942 C 25.946501,29.456186 26.539052,29.376581 27.133149,29.335191 C 27.646597,29.285714 28.158934,29.331147 28.66909,29.391531 C 29.464993,29.525161 30.266141,29.623095 31.065113,29.735834 C 32.146146,29.872263 33.229099,29.987431 34.306866,30.14872 C 35.424599,30.326397 36.538394,30.528399 37.658356,30.691861 C 38.26641,30.747634 38.855685,30.905845 39.448244,31.043374 C 40.293391,31.205911 41.137051,31.374237 41.990503,31.487288 C 42.520097,31.553945 43.053427,31.575542 43.586668,31.58097 C 44.094746,31.587888 44.60286,31.584371 45.110941,31.580217 C 45.442374,31.549932 45.765261,31.616948 46.091329,31.66156 C 46.241631,31.679359 46.392823,31.685586 46.543898,31.692291 L 45.028614,32.781784 C 44.872005,32.773243 44.715412,32.764485 44.560154,32.740731 C 44.243766,32.692403 43.928498,32.654027 43.60721,32.673357 C 43.097987,32.671881 42.588767,32.67344 42.079551,32.671678 C 41.548438,32.657311 41.018319,32.622018 40.492275,32.543879 C 39.637606,32.41453 38.790133,32.24333 37.93956,32.090097 C 37.35011,31.965958 36.764228,31.821385 36.166479,31.740766 C 35.056285,31.554941 33.949013,31.351131 32.835543,31.185285 C 31.751625,31.029377 30.662651,30.92096 29.575939,30.787069 C 28.77332,30.680127 27.970564,30.574596 27.169308,30.457791 C 26.658857,30.41281 26.148096,30.389 25.636694,30.438639 C 25.051554,30.480559 24.465936,30.534625 23.878519,30.512897 C 22.561378,30.501397 21.244166,30.495655 19.926976,30.498289 C 18.543547,30.499867 17.160139,30.505723 15.77672,30.510374 C 14.845562,30.512618 13.914407,30.514302 12.983255,30.518044 C 12.356551,30.520674 11.729845,30.520821 11.103144,30.523704 C 10.445353,30.523641 9.7876406,30.511368 9.1298499,30.509821 C 7.9892595,30.501616 6.8483225,30.495557 5.7080244,30.528026 L 7.2209616,29.428813 z" transform="translate(209.337,272.78)"/>
      <path style="fill:#000000" id="path2597" d="M 6.0986754,37.00566 C 6.2020427,37.008049 6.3054218,37.015682 6.4087773,37.012827 C 6.5494629,37.00894 7.2912129,36.953402 7.396088,36.945705 C 7.9517525,36.90492 8.5071914,36.868291 9.0621789,36.819022 C 10.18633,36.734393 11.309452,36.636178 12.435564,36.580964 C 13.495542,36.515194 14.555745,36.532847 15.615948,36.573934 C 16.381712,36.586317 17.144415,36.642369 17.908149,36.693557 C 18.812255,36.760795 19.715595,36.826699 20.621791,36.860918 C 21.768492,36.935831 22.916627,36.978846 24.065415,37.00242 C 25.021022,37.018544 25.976787,37.019882 26.932502,37.021695 C 28.108992,37.026457 29.285491,37.027366 30.46199,37.028095 C 31.645284,37.029674 32.828572,37.02585 34.011856,37.021528 C 34.96676,37.019253 35.921671,37.019255 36.876576,37.020626 C 37.751406,37.031553 38.621602,37.109102 39.492544,37.182711 C 40.367088,37.247935 41.243339,37.245752 42.116773,37.326389 C 42.867792,37.379698 43.609347,37.505065 44.352104,37.621742 C 45.084057,37.743513 45.823347,37.799088 46.560164,37.87943 C 46.90348,37.930949 47.246378,37.984831 47.589925,38.034787 L 46.082281,39.095914 C 45.743322,39.042552 45.405078,38.984096 45.064425,38.94219 C 44.323985,38.865918 43.582799,38.798012 42.847446,38.679227 C 42.112999,38.561917 41.378371,38.444025 40.636533,38.382636 C 39.758519,38.31328 38.877745,38.318545 37.999783,38.247547 C 37.137004,38.169952 36.274001,38.092077 35.406788,38.088489 C 34.452701,38.089848 33.49861,38.08985 32.544525,38.087615 C 31.366913,38.08336 30.189295,38.07971 29.011673,38.081872 C 27.828475,38.083241 26.64528,38.085567 25.462088,38.089767 C 24.507648,38.089482 23.553063,38.088537 22.598903,38.062376 C 21.449932,38.029121 20.301626,37.980464 19.153795,37.919306 C 18.239882,37.886994 17.328528,37.823518 16.416255,37.761919 C 15.657091,37.708462 14.897832,37.666393 14.137237,37.638959 C 13.085828,37.592592 12.034596,37.581536 10.983342,37.647745 C 9.8571282,37.710746 8.7331624,37.805035 7.6087626,37.89388 C 6.6028629,37.975057 5.5956855,38.060536 4.5876753,38.103466 L 6.0986754,37.00566 z" transform="translate(209.337,272.78)"/>
      <path style="fill:#000000" id="path2609" d="M 6.7017499,11.119094 C 7.2084768,11.127752 7.7153303,11.12625 8.2221114,11.124615 C 8.6795999,11.122153 9.1371035,11.122599 9.5945937,11.124368 C 10.031828,11.123463 10.469064,11.123004 10.906297,11.121909 C 11.287177,11.123352 11.668053,11.120741 12.048931,11.121018 C 12.356403,11.120664 12.663875,11.11966 12.971347,11.119125 C 13.257489,11.103025 13.535946,11.174313 13.819228,11.205218 C 14.153039,11.23737 14.488624,11.242588 14.823721,11.245766 C 15.110847,11.246825 15.397968,11.24598 15.685093,11.247281 C 16.206543,11.260914 16.726364,11.204775 17.246388,11.172124 C 17.767672,11.140929 18.289859,11.130909 18.811922,11.12394 C 19.193889,11.127417 19.5716,11.129047 19.949807,11.07492 C 20.273727,11.031481 20.599615,11.007523 20.926196,10.999039 C 21.304223,10.993364 21.682367,10.99453 22.060439,10.995017 C 22.612065,10.996459 23.16367,11.001824 23.715299,11.001585 C 24.271741,11.001987 24.828185,10.999471 25.384621,10.996947 C 25.912998,10.992 26.44167,11.015843 26.969154,10.981081 C 27.528749,10.952974 28.082178,10.866123 28.638095,10.800984 C 29.024093,10.777632 29.405083,10.723029 29.788619,10.677177 C 30.183476,10.630155 30.58139,10.62308 30.978544,10.620294 C 31.431785,10.579715 31.88406,10.529659 32.338816,10.509408 C 32.827529,10.489334 33.31685,10.493204 33.805861,10.49428 C 34.329251,10.493742 34.852608,10.49173 35.375996,10.492981 C 36.010541,10.497803 36.645107,10.496069 37.279664,10.496885 C 37.952847,10.498804 38.624114,10.562274 39.296566,10.592063 C 39.912563,10.652387 40.52937,10.700169 41.147731,10.726978 C 41.532734,10.755461 41.92169,10.715321 42.304599,10.765029 C 42.713902,10.811469 43.122771,10.834809 43.529067,10.903162 C 43.949476,10.960926 44.373749,11.00301 44.788465,11.095084 C 45.132248,11.17046 45.463227,11.286075 45.812683,11.335912 C 46.185264,11.374657 46.560449,11.375441 46.934629,11.377115 C 47.354639,11.421607 47.774827,11.460991 48.196651,11.483004 C 48.420856,11.51377 48.645608,11.53962 48.870596,11.563793 L 47.356125,12.639149 C 47.131622,12.614241 46.907471,12.585158 46.682067,12.569385 C 46.26379,12.5402 45.847194,12.49134 45.428484,12.469728 C 45.046137,12.465904 44.662089,12.466923 44.28308,12.409008 C 43.937284,12.343169 43.605488,12.224965 43.259696,12.158875 C 42.843301,12.079454 42.422328,12.032392 42.002637,11.974921 C 41.598469,11.911159 41.190104,11.889936 40.783239,11.848482 C 40.403978,11.82644 40.023174,11.835978 39.643998,11.807998 C 39.029262,11.77279 38.41643,11.714719 37.802607,11.667074 C 37.131858,11.635344 36.461917,11.571903 35.789962,11.579204 C 35.152109,11.579947 34.514251,11.578135 33.876407,11.58237 C 33.35474,11.583039 32.833106,11.579822 32.311438,11.580574 C 31.820944,11.583919 31.3302,11.585868 30.840204,11.6107 C 30.385384,11.639924 29.932241,11.688549 29.477276,11.714798 C 29.082326,11.724964 28.686856,11.738455 28.294827,11.791328 C 27.913828,11.841722 27.532093,11.875986 27.149251,11.909043 C 26.593541,11.972137 26.039251,12.051173 25.47984,12.074988 C 24.947208,12.095378 24.414031,12.085662 23.881077,12.089329 C 23.329041,12.08676 22.776999,12.084172 22.224957,12.08432 C 21.668009,12.083772 21.111078,12.088627 20.554131,12.089477 C 20.175479,12.09017 19.796697,12.088845 19.418251,12.103429 C 19.095364,12.119689 18.773223,12.146285 18.452843,12.190622 C 18.072544,12.229393 17.691108,12.213505 17.309349,12.218206 C 16.792322,12.22291 16.275226,12.234158 15.759124,12.267242 C 15.231122,12.30152 14.703611,12.354037 14.173897,12.345423 C 13.885734,12.347187 13.597547,12.348047 13.309417,12.342231 C 12.970939,12.334477 12.631952,12.323845 12.295294,12.285709 C 12.016357,12.251372 11.73902,12.202016 11.456557,12.219684 C 11.150822,12.219149 10.845088,12.218143 10.539353,12.217791 C 10.159293,12.218066 9.7792338,12.215453 9.3991722,12.2169 C 8.9641951,12.215802 8.5292163,12.215346 8.0942389,12.21444 C 7.6369753,12.21619 7.1796982,12.216678 6.7224365,12.214193 C 6.2105879,12.212528 5.6986725,12.211197 5.1868757,12.219715 L 6.7017499,11.119094 z" transform="translate(209.337,272.78)"/>
      <g transform="matrix(0.1059992,-1.6961219e-2,-3.6116098e-4,0.1074491,199.61049,256.92891)" id="g7826" inkscape:export-filename="C:\Users\Elijah\Pictures\svg\noteboard\apple-touch-icon.png" inkscape:export-xdpi="90" inkscape:export-ydpi="90">
        <path style="fill:url(#linearGradient7819);fill-opacity:1;fill-rule:nonzero;stroke:none;stroke-width:5.16400003;stroke-linecap:round;stroke-linejoin:round;marker:none;stroke-miterlimit:4;stroke-dasharray:none;stroke-dashoffset:0;stroke-opacity:1;visibility:visible;display:inline;overflow:visible" d="M 567.37875,303.43872 C 543.63656,279.71721 517.71633,267.11036 509.5634,275.25617 C 509.01009,275.809 508.52666,276.43334 508.16205,277.14309 L 456.49985,328.76025 L 464.29799,336.5516 L 494.63729,366.86446 L 504.38497,376.60364 L 542.52236,414.70779 L 595.89049,361.38618 C 595.86094,361.29029 595.8599,361.17853 595.82967,361.08194 L 595.76872,361.02105 C 595.78695,361.00143 595.81139,360.98009 595.82952,360.96031 C 603.51461,352.55994 590.89551,326.93496 567.37875,303.43872 z" id="path4217"/>
        <path style="fill:#e3dedb;fill-opacity:1;fill-rule:nonzero;stroke:none;stroke-width:5.16400003;stroke-linecap:round;stroke-linejoin:round;marker:none;stroke-miterlimit:4;stroke-dasharray:none;stroke-dashoffset:0;stroke-opacity:1;visibility:visible;display:inline;overflow:visible" d="M 470.45111,314.82116 L 422.1396,363.09057 L 416.59567,368.62967 L 424.39381,376.42101 L 502.61817,454.5772 L 556.47361,400.7687 L 513.46237,357.79495 L 478.24924,322.61251 L 470.45111,314.82116 z" id="path4235"/>
        <path style="fill:#000000;fill-opacity:1;fill-rule:nonzero;stroke:none;stroke-width:5.16400003;stroke-linecap:round;stroke-linejoin:round;marker:none;stroke-miterlimit:4;stroke-dasharray:none;stroke-dashoffset:0;stroke-opacity:1;visibility:visible;display:inline;overflow:visible" d="M 538.98884,418.23823 L 452.96634,332.2907 L 449.06738,336.18625 L 447.11781,338.13413 L 533.14031,424.08167 L 535.0899,422.13378 L 538.98884,418.23823 z" id="path4143"/>
        <path style="fill:#000000;fill-opacity:1;fill-rule:nonzero;stroke:none;stroke-width:5.16400003;stroke-linecap:round;stroke-linejoin:round;marker:none;stroke-miterlimit:4;stroke-dasharray:none;stroke-dashoffset:0;stroke-opacity:1;visibility:visible;display:inline;overflow:visible" d="M 548.73649,408.49908 L 462.71399,322.55154 L 458.81487,326.44727 L 456.86528,328.39515 L 542.88779,414.34269 L 544.83737,412.3948 L 548.73649,408.49908 z" id="path4147"/>
        <path style="fill:#000000;fill-opacity:1;fill-rule:nonzero;stroke:none;stroke-width:5.16400003;stroke-linecap:round;stroke-linejoin:round;marker:none;stroke-miterlimit:4;stroke-dasharray:none;stroke-dashoffset:0;stroke-opacity:1;visibility:visible;display:inline;overflow:visible" d="M 529.24119,427.97739 L 443.21869,342.02986 L 439.31969,345.92546 L 437.37015,347.87329 L 523.39266,433.82082 L 525.3422,431.87298 L 529.24119,427.97739 z" id="path4163"/>
        <path style="fill:url(#linearGradient7812);fill-opacity:1;fill-rule:nonzero;stroke:none;stroke-width:5.16400003;stroke-linecap:round;stroke-linejoin:round;marker:none;stroke-miterlimit:4;stroke-dasharray:none;stroke-dashoffset:0;stroke-opacity:1;visibility:visible;display:inline;overflow:visible" d="M 429.20661,356.02971 L 244.3069,540.76828 L 209.33745,661.6548 L 220.30359,658.48966 L 330.3294,626.71581 L 515.22912,441.97725 L 498.53641,425.29909 L 492.68789,419.45566 L 477.09173,403.87309 L 475.14215,401.9252 L 469.29362,396.08178 L 467.34405,394.13391 L 451.74805,378.5515 L 445.89934,372.7079 L 437.00475,363.82106 L 429.20661,356.02971 z" id="path4106"/>
        <path style="fill:#000000;fill-opacity:1;fill-rule:nonzero;stroke:none;stroke-width:5.16400003;stroke-linecap:round;stroke-linejoin:round;marker:none;stroke-miterlimit:4;stroke-dasharray:none;stroke-dashoffset:0;stroke-opacity:1;visibility:visible;display:inline;overflow:visible" d="M 256.88237,647.92525 L 239.98074,631.03834 L 223.0791,614.15144 L 209.33745,661.6548 L 256.88237,647.92525 z" id="path3990" sodipodi:nodetypes="ccccc"/>
        <path style="fill:#ff9191;fill-opacity:1;fill-rule:nonzero;stroke:none;stroke-width:5.16400003;stroke-linecap:round;stroke-linejoin:round;marker:none;stroke-miterlimit:4;stroke-dasharray:none;stroke-dashoffset:0;stroke-opacity:1;visibility:visible;display:inline;overflow:visible" d="M 595.82967,361.08194 C 595.8599,361.17853 595.86094,361.29029 595.89049,361.38618 L 596.01233,361.26445 L 595.82967,361.08194 z" id="path4089"/>
        <path style="fill:#ffc700;fill-opacity:1;fill-rule:nonzero;stroke:none;stroke-width:5.16400003;stroke-linecap:round;stroke-linejoin:round;marker:none;stroke-miterlimit:4;stroke-dasharray:none;stroke-dashoffset:0;stroke-opacity:1;visibility:visible;display:inline;overflow:visible" d="M 429.20661,356.02971 L 244.3069,540.76828 L 286.03514,542.05018 L 287.31817,583.74205 L 329.04638,585.02394 L 330.3294,626.71581 L 515.22912,441.97725 L 493.72349,420.49036 L 472.21788,399.00349 L 450.71225,377.5166 L 429.20661,356.02971 z" id="path3424" sodipodi:nodetypes="ccccccccccc"/>
        <path style="fill:#ffda00;fill-opacity:1;fill-rule:nonzero;stroke:none;stroke-width:5.16400003;stroke-linecap:round;stroke-linejoin:round;marker:none;stroke-miterlimit:4;stroke-dasharray:none;stroke-dashoffset:0;stroke-opacity:1;visibility:visible;display:inline;overflow:visible" d="M 429.20661,356.02971 L 244.3069,540.76828 L 286.03514,542.05018 L 450.71225,377.5166 L 429.20661,356.02971 z" id="path3426" sodipodi:nodetypes="ccccc"/>
        <path style="fill:#ff8a00;fill-opacity:1;fill-rule:nonzero;stroke:none;stroke-width:5.16400003;stroke-linecap:round;stroke-linejoin:round;marker:none;stroke-miterlimit:4;stroke-dasharray:none;stroke-dashoffset:0;stroke-opacity:1;visibility:visible;display:inline;overflow:visible" d="M 329.04638,585.02394 L 330.3294,626.71581 L 515.22912,441.97725 L 493.72349,420.49036 L 329.04638,585.02394 z" id="path3428" sodipodi:nodetypes="ccccc"/>
        <path style="fill:#ffa100;fill-opacity:1;fill-rule:nonzero;stroke:none;stroke-width:5.16400003;stroke-linecap:round;stroke-linejoin:round;marker:none;stroke-miterlimit:4;stroke-dasharray:none;stroke-dashoffset:0;stroke-opacity:1;visibility:visible;display:inline;overflow:visible" d="M 287.31817,583.74205 L 329.04638,585.02394 L 493.72349,420.49036 L 472.21788,399.00349 L 287.31817,583.74205 z" id="path3430" sodipodi:nodetypes="ccccc"/>
        <path style="opacity:1;fill:url(#linearGradient7803);fill-opacity:1;fill-rule:nonzero;stroke:none;stroke-width:5;stroke-linecap:butt;stroke-linejoin:miter;marker:none;stroke-miterlimit:4;stroke-dasharray:none;stroke-dashoffset:50;stroke-opacity:1;visibility:visible;display:inline;overflow:visible" d="M 491.10332,336.97196 C 489.54595,335.41601 487.73193,334.1983 485.81068,333.42031 C 483.88938,332.64231 481.84968,332.31535 479.8071,332.31535 C 477.76446,332.31535 475.72476,332.64231 473.80351,333.42031 C 471.88221,334.1983 470.06819,335.41601 468.51087,336.97197 L 439.28289,366.17448 L 265.73182,539.57429 C 265.19273,540.11291 264.98825,540.80808 264.5469,541.38958 L 286.03343,542.02099 L 287.29733,583.69377 L 311.94364,584.48302 L 484.86275,411.71462 L 514.09073,382.51211 C 515.64801,380.95615 516.86685,379.14368 517.64549,377.22409 C 518.4241,375.30448 518.75142,373.26653 518.75142,371.22573 C 518.75137,369.18492 518.42417,367.14695 517.64549,365.22737 C 516.86677,363.3078 515.64805,361.49531 514.09073,359.93935 L 491.10332,336.97196 z" id="path3680"/>
        <path style="opacity:0.8;fill:#ffffff;fill-opacity:1;fill-rule:nonzero;stroke:none;stroke-width:5.16400003;stroke-linecap:round;stroke-linejoin:round;marker:none;stroke-miterlimit:4;stroke-dasharray:none;stroke-dashoffset:0;stroke-opacity:1;visibility:visible;display:inline;overflow:visible" d="M 239.98074,631.03834 L 228.73595,619.80829 L 209.33745,661.6548 L 239.98074,631.03834 z" id="path4288" sodipodi:nodetypes="cccc"/>
      </g>
    </g>
  </g>
</g></svg>
